<?xml version="1.0" encoding="utf-8"?>
<!-- Generator: Adobe Illustrator 15.0.0, SVG Export Plug-In . SVG Version: 6.00 Build 0)  -->
<!DOCTYPE svg PUBLIC "-//W3C//DTD SVG 1.1//EN" "http://www.w3.org/Graphics/SVG/1.1/DTD/svg11.dtd">
<svg version="1.1" id="_x3C_Layer_x3E_" xmlns="http://www.w3.org/2000/svg" xmlns:xlink="http://www.w3.org/1999/xlink" x="0px"
	 y="0px" width="793.362px" height="198.031px" viewBox="0 0 793.362 198.031" enable-background="new 0 0 793.362 198.031"
	 xml:space="preserve">
<path fill="#E62D36" d="M178.186,38.639c0,13.701-11.105,24.805-24.809,24.805c-13.695,0-24.805-11.104-24.805-24.805
	c0-13.699,11.109-24.803,24.805-24.803C167.081,13.836,178.186,24.939,178.186,38.639"/>
<g>
	<rect x="229.944" y="117" fill-rule="evenodd" clip-rule="evenodd" fill="#212C75" width="12.809" height="78.93"/>
	<path fill-rule="evenodd" clip-rule="evenodd" fill="#212C75" d="M257.987,195.93h11.699v-23.289c0-6.406,0.223-10.82,2.32-13.91
		c2.426-3.645,6.844-5.742,12.363-5.742c9.715,0,11.148,5.301,11.148,16.668v26.273h11.813v-31.016c0-6.184,0-10.82-2.539-14.688
		c-2.98-4.742-8.391-7.172-16.008-7.172c-8.941,0-15.012,2.98-19.758,10.156v-8.391h-11.039V195.93z"/>
	<path fill-rule="evenodd" clip-rule="evenodd" fill="#212C75" d="M314.838,186.656c3.754,7.73,10.266,11.375,20.203,11.375
		c13.355,0,20.863-6.406,20.863-16.34c0-7.395-4.195-11.59-13.137-15.125c-7.949-3.199-13.469-3.973-13.469-8.941
		c0-3.531,2.871-5.852,7.395-5.852c4.086,0,7.289,2.102,8.504,5.301l8.277-5.738c-2.539-5.301-8.277-8.391-16.34-8.391
		c-12.141,0-19.539,6.512-19.539,15.344c0,7.395,4.969,11.367,14.684,15.453c7.066,2.98,12.145,3.422,12.145,8.723
		c0,4.082-3.094,6.73-8.391,6.73c-6.184,0-10.047-2.758-11.48-7.836L314.838,186.656z"/>
	<polygon fill-rule="evenodd" clip-rule="evenodd" fill="#212C75" points="368.268,195.93 379.971,195.93 379.971,155.086 
		388.913,155.086 388.913,144.82 379.971,144.82 379.971,125.5 368.268,125.5 368.268,144.82 359.327,144.82 359.327,155.086 
		368.268,155.086 	"/>
	<path fill-rule="evenodd" clip-rule="evenodd" fill="#212C75" d="M395.756,122.742c0,3.973,3.313,7.395,7.395,7.395
		c4.086,0,7.289-3.199,7.289-7.395s-3.203-7.289-7.289-7.289C399.069,115.453,395.756,118.766,395.756,122.742z M397.299,195.93
		h11.703V144.82h-11.703V195.93z"/>
	<polygon fill-rule="evenodd" clip-rule="evenodd" fill="#212C75" points="426.225,195.93 437.924,195.93 437.924,155.086 
		446.866,155.086 446.866,144.82 437.924,144.82 437.924,125.5 426.225,125.5 426.225,144.82 417.284,144.82 417.284,155.086 
		426.225,155.086 	"/>
	<path fill-rule="evenodd" clip-rule="evenodd" fill="#212C75" d="M466.077,144.82h-11.703v25.281c0,19.207,6.957,27.93,24.84,27.93
		c17.551,0,24.617-8.836,24.617-27.93V144.82h-11.703v28.813c0,9.602-3.531,13.91-13.023,13.91c-9.496,0-13.027-4.309-13.027-13.91
		V144.82z"/>
	<polygon fill-rule="evenodd" clip-rule="evenodd" fill="#212C75" points="520.167,195.93 531.87,195.93 531.87,155.086 
		540.811,155.086 540.811,144.82 531.87,144.82 531.87,125.5 520.167,125.5 520.167,144.82 511.225,144.82 511.225,155.086 
		520.167,155.086 	"/>
	<path fill-rule="evenodd" clip-rule="evenodd" fill="#212C75" d="M597.885,172.086c0-0.773,0-1.547,0-2.207
		c0-17-9.715-26.824-26.164-26.824c-15.895,0-26.824,11.59-26.824,27.484c0,16.672,10.488,27.492,26.824,27.492
		c11.48,0,19.871-4.969,25.613-15.234l-9.828-5.523c-3.754,7.066-8.5,10.047-16.004,10.047c-8.5,0-13.91-5.629-14.461-15.234
		H597.885z M585.741,164.25h-27.93c1.879-7.617,6.516-11.262,14.133-11.262C580.002,152.988,584.858,156.852,585.741,164.25z"/>
	<g>
		<path fill="#212C75" d="M87.127,77.088c-0.512,0.139-1.02,0.275-1.539,0.4c-20.043,4.752-39.375-4.377-43.172-20.393
			s9.375-32.852,29.426-37.604c0.516-0.121,1.031-0.229,1.551-0.332L68.854,0C19.795,11.631-9.716,64.287,2.924,117.609
			c12.645,53.328,62.66,87.133,111.719,75.5L87.127,77.088"/>
	</g>
	<path fill-rule="evenodd" clip-rule="evenodd" fill="#212C75" d="M282.315,18.783c-7.043-3.406-13.746-5.111-21.016-5.111
		c-23.969,0-41.234,18.063-41.234,42.598s17.266,42.598,41.234,42.598c7.27,0,13.973-1.703,21.016-5.111V69.561
		c-5.906,6.588-11.586,9.768-18.742,9.768c-12.953,0-21.359-10.109-21.359-22.604c0-13.746,8.523-23.514,21.359-23.514
		c7.156,0,12.836,3.18,18.742,9.768V18.783z"/>
	<path fill-rule="evenodd" clip-rule="evenodd" fill="#212C75" d="M332.065,68.992c0,8.293-4.43,13.404-11.699,13.404
		s-11.699-5.111-11.699-13.404s4.43-13.518,11.699-13.518S332.065,60.699,332.065,68.992z M351.717,68.992
		c0-16.584-13.629-29.988-31.352-29.988c-17.719,0-31.238,13.404-31.238,29.988c0,16.471,13.406,29.988,31.238,29.988
		C338.088,98.98,351.717,85.576,351.717,68.992z"/>
	<rect x="362.51" y="10.832" fill-rule="evenodd" clip-rule="evenodd" fill="#212C75" width="19.766" height="85.99"/>
	<path fill-rule="evenodd" clip-rule="evenodd" fill="#212C75" d="M436.459,59.223V42.525c-4.43-2.613-8.859-3.521-14.199-3.521
		c-17.039,0-29.195,12.268-29.195,29.875c0,18.629,12.383,30.102,28.969,30.102c5.223,0,9.883-1.363,14.426-3.861V77.965
		c-3.293,3.408-6.477,4.885-10.68,4.885c-8.293,0-13.289-5.68-13.289-14.084c0-9.088,5.227-14.428,12.836-14.428
		C429.303,54.338,432.709,55.93,436.459,59.223z"/>
	<path fill-rule="evenodd" clip-rule="evenodd" fill="#212C75" d="M447.479,96.822h19.422V73.309
		c0-12.609,2.953-19.311,11.813-19.311c6.59,0,9.203,4.09,9.203,12.836v29.988h19.766V64.789c0-8.064-0.34-14.199-4.09-18.971
		c-3.406-4.316-9.316-6.814-16.586-6.814c-9.426,0-15.676,3.748-20.785,12.154c0.453-3.182,0.68-6.701,0.68-10.109V10.832h-19.422
		V96.822z"/>
	<path fill-rule="evenodd" clip-rule="evenodd" fill="#212C75" d="M559.139,61.609H536.42c1.137-7.043,5.113-10.564,11.473-10.564
		C553.799,51.045,558.456,55.133,559.139,61.609z M578.565,72.74c0-0.34,0-0.568,0-0.908c0-20.561-11.816-32.828-29.988-32.828
		c-18.629,0-31.238,13.518-31.238,30.441c0,16.926,11.926,29.535,32.371,29.535c13.293,0,22.492-4.998,26.016-13.404l-14.883-6.02
		c-2.156,4.43-6.246,6.701-12.266,6.701c-7.953,0-12.496-4.77-12.609-13.518H578.565z"/>
	<path fill-rule="evenodd" clip-rule="evenodd" fill="#212C75" d="M583.561,92.164c7.613,4.658,15.902,6.816,25.559,6.816
		c14.883,0,24.082-7.951,24.082-19.197c0-8.975-5.227-13.744-15.902-16.926c-7.84-2.385-12.836-2.611-12.836-6.475
		c0-2.613,2.27-4.09,6.816-4.09c5.223,0,10.676,1.705,16.129,5.453l4.09-13.631c-7.727-3.408-14.996-5.111-22.379-5.111
		c-14.652,0-22.719,7.725-22.719,17.947c0,8.52,5.34,13.631,16.926,16.697c7.383,1.932,11.926,1.932,11.926,6.59
		c0,2.953-2.609,4.656-7.609,4.656c-6.816,0-14.199-2.727-19.992-7.838L583.561,92.164z"/>
	<polygon fill-rule="evenodd" clip-rule="evenodd" fill="#212C75" points="645.698,96.822 665.12,96.822 665.12,54.793 
		673.526,54.793 673.526,40.82 665.12,40.82 665.12,24.123 645.698,24.123 645.698,40.82 637.292,40.82 637.292,54.793 
		645.698,54.793 	"/>
	<path fill-rule="evenodd" clip-rule="evenodd" fill="#212C75" d="M720.213,61.609h-22.719c1.137-7.043,5.113-10.564,11.473-10.564
		C714.874,51.045,719.534,55.133,720.213,61.609z M739.639,72.74c0-0.34,0-0.568,0-0.908c0-20.561-11.816-32.828-29.988-32.828
		c-18.629,0-31.238,13.518-31.238,30.441c0,16.926,11.926,29.535,32.371,29.535c13.293,0,22.492-4.998,26.016-13.404l-14.883-6.02
		c-2.156,4.43-6.246,6.701-12.266,6.701c-7.953,0-12.496-4.77-12.609-13.518H739.639z"/>
	<g>
		<path fill-rule="evenodd" clip-rule="evenodd" fill="#212C75" d="M749.971,96.822h19.648V73.648
			c0-11.244,5.68-16.924,14.996-16.924c2.273,0,4.43,0.453,6.816,1.135l1.93-17.947c-2.383-0.227-4.203-0.34-5.566-0.34
			c-8.633,0-15.563,5.111-19.195,14.426V40.82h-18.629V96.822z"/>
	</g>
	<path fill="#E62D36" d="M177.264,188.68c0,3.727-3.02,6.75-6.746,6.75h-34.277c-3.727,0-6.746-3.023-6.746-6.75l-4.766-105.465
		c0-3.727,3.023-6.748,6.75-6.748h43.797c3.73,0,6.754,3.021,6.754,6.748L177.264,188.68"/>
</g>
</svg>
